# xmcd
#
# Track frame offsets:
#	182
#	15562
#	33725
#	52162
#	67612
#	81097
#	92237
#	111375
#
# Disc length: 1695 seconds
#
# Revision: 0
# Processed by: cddbd v1.4PL0 Copyright (c) Steve Scherf et al.
# Submitted via: dBpowerAMP V4.0
#
DISCID=64069d08
DTITLE=The Oakleys - Heartaches And Roses
DYEAR=1900
DGENRE=
TTITLE0=Home Alone
TTITLE1=Too Many
TTITLE2=Stop Livin'
TTITLE3=Closin' Time
TTITLE4=1,2,3, I'm Gone
TTITLE5=Big Blue Lincoln
TTITLE6=Waltz Across Texas
TTITLE7=Housewife Blues
EXTD=\n\n                                                                                     Les
EXTT0=
EXTT1=
EXTT2=
EXTT3=
EXTT4=
EXTT5=
EXTT6=
EXTT7=
PLAYORDER=
